<svg xmlns="http://www.w3.org/2000/svg" width="131.443" height="32" viewBox="0 0 131.443 32"><g><g><g><g fill="#111184"><path d="m48.434 28.601-.421-2.734h-3.862l-.478 2.734h-5.918l5.1-21.257h7.016l4.51 21.257Zm-1.1-7.245-.62-4.935c-.169-1.326-.283-2.676-.421-4h-.058c-.168 1.327-.311 2.676-.535 4l-.788 4.935Z"/><path d="M59.876 21.442a4.863 4.863 0 0 0 3.635 2.365 1.552 1.552 0 0 0 1.692-1.406 1.664 1.664 0 0 0-.451-1.185 4.614 4.614 0 0 0-.957-.819 13.765 13.765 0 0 1-2.848-2.7 6.171 6.171 0 0 1-1.154-3.722c0-2.481 1.576-6.992 6.483-6.992a9 9 0 0 1 4.084 1.072v6.455a4.681 4.681 0 0 0-3.384-2.285 1.427 1.427 0 0 0-1.492 1.3 1.807 1.807 0 0 0 .561 1.185 9.565 9.565 0 0 0 1.046.872 10.573 10.573 0 0 1 2.816 2.594 6.048 6.048 0 0 1 1.041 3.693c0 3.948-2.758 7.106-6.76 7.106a11.355 11.355 0 0 1-4.313-.874Z"/><path d="m87.052 28.601-3.577-9.755h-.031v9.755h-5.747V7.344h5.747v9.048l-.055.058v-.058h.086l3.154-9.048h6.058l-4.592 10.262 5.128 11Z"/><path d="M113.854 7.344v13.9c0 2.563-.564 7.725-7.214 7.725s-7.213-5.162-7.213-7.725v-13.9h5.746v13.364a6.925 6.925 0 0 0 .141 1.861 1.272 1.272 0 0 0 1.326 1.042 1.237 1.237 0 0 0 1.323-1.014 7.158 7.158 0 0 0 .141-1.861V7.344Z"/><path d="M121.381 28.601V7.344h5.747v16.238h4.316v5.019Z"/></g></g><g fill="#111184"><path d="M10.661 4.604a3.232 3.232 0 0 0 2.581 2.628 2.913 2.913 0 0 0 1.963-.331 2.989 2.989 0 0 0 1.417-1.524 4.282 4.282 0 0 0-.03-2.51c.152-.349.288-.667.493-1.106-1.309-.609-2.614-1.225-3.957-1.76a21.92 21.92 0 0 1-.831 1.525c-.789-.307-.922-.369-1.589-.646-.1.173-.115.236-.237.469.369.164.871.412 1.337.631a3.4 3.4 0 0 0-.906 1.2 5.649 5.649 0 0 0-.206 1.171c-.783-.214-1.583-.477-2.332-.7-.007.7-.007.8 0 1.552a16.42 16.42 0 0 1 2.297-.599Z"/><path d="m22.619 16.193 8.407.512.318-5.152-8.22-.5h-.095a5.862 5.862 0 0 0-10.578-.695l-.063.04-6.446-.393-5.943 2.217 5.776 2.937 6.4.392.021-.007a5.872 5.872 0 0 0 1.619 2.159l-.025.044a16.925 16.925 0 0 0-6.293 9.3c-.828-.168-2.47-.527-2.47-.527s-.454.018-.536.4a1966.62 1966.62 0 0 1-.684 3.218l8.033 1.7c.426-2.039 1.8-11.8 6.43-12.761 2.344 1.325 5.483 6.485 5.7 7.976-.652.4-2.344 1.016-2.487 1.128-.23.174-.6.248-.254.925.179.363 1.4 2.89 1.4 2.89l7.6-3.4c-.691-4.744-5.835-9.542-8.889-10.887l-.033.013a5.878 5.878 0 0 0 1.312-1.529Zm.3-.584a5.835 5.835 0 0 0 .514-2.406 5.965 5.965 0 0 0-.2-1.511l.016.01 7.463.467-.314 3.915-7.5-.467Zm-17.232-1.15-2.835-1.435.07-1.255 2.836-.98Zm12.561-.524-.008.012a2.981 2.981 0 0 0-.333-.018 2.55 2.55 0 0 0-2.205 1.264h-.021l-9.3-.6.109-3.937 11.789.74.027-.01a3.034 3.034 0 0 1-.054 2.549Z"/></g></g></g></svg>